<svg width="202" height="54" viewBox="0 0 202 54" fill="none" xmlns="http://www.w3.org/2000/svg">
<path d="M195.19 17.1882C197.203 17.1882 198.805 17.837 199.997 19.1347C201.209 20.4121 201.815 22.1761 201.815 24.4267V34.3418H196.577V25.1263C196.577 23.9908 196.279 23.1088 195.683 22.4802C195.087 21.8517 194.286 21.5374 193.28 21.5374C192.273 21.5374 191.472 21.8517 190.877 22.4802C190.281 23.1088 189.983 23.9908 189.983 25.1263V34.3418H184.714V17.3707H189.983V19.6213C190.517 18.8711 191.236 18.2831 192.14 17.8573C193.044 17.4112 194.06 17.1882 195.19 17.1882Z" fill="white"/>
<path d="M170.335 17.13C171.547 17.13 172.605 17.3733 173.509 17.8599C174.433 18.3466 175.142 18.9853 175.635 19.776V17.3733H180.904V34.314C180.904 35.8753 180.585 37.2845 179.948 38.5416C179.332 39.819 178.377 40.8328 177.083 41.583C175.809 42.3332 174.218 42.7083 172.307 42.7083C169.76 42.7083 167.696 42.1102 166.114 40.9139C164.533 39.7379 163.629 38.1361 163.403 36.1085H168.61C168.774 36.7573 169.165 37.2642 169.781 37.6292C170.397 38.0144 171.157 38.207 172.061 38.207C173.149 38.207 174.012 37.8928 174.649 37.2642C175.306 36.6559 175.635 35.6725 175.635 34.314V31.9113C175.121 32.7021 174.413 33.3509 173.509 33.8578C172.605 34.3444 171.547 34.5878 170.335 34.5878C168.918 34.5878 167.634 34.2329 166.484 33.5233C165.334 32.7933 164.42 31.7694 163.742 30.4514C163.085 29.1132 162.756 27.5722 162.756 25.8285C162.756 24.0847 163.085 22.5539 163.742 21.2359C164.42 19.918 165.334 18.9042 166.484 18.1945C167.634 17.4848 168.918 17.13 170.335 17.13ZM175.635 25.8589C175.635 24.5612 175.265 23.5373 174.526 22.787C173.807 22.0368 172.923 21.6617 171.876 21.6617C170.828 21.6617 169.935 22.0368 169.195 22.787C168.476 23.517 168.117 24.5308 168.117 25.8285C168.117 27.1261 168.476 28.1602 169.195 28.9307C169.935 29.6809 170.828 30.056 171.876 30.056C172.923 30.056 173.807 29.6809 174.526 28.9307C175.265 28.1805 175.635 27.1566 175.635 25.8589Z" fill="white"/>
<path d="M157.364 15.6071C156.44 15.6071 155.68 15.3435 155.084 14.8164C154.509 14.2689 154.222 13.5998 154.222 12.809C154.222 11.998 154.509 11.3289 155.084 10.8017C155.68 10.2542 156.44 9.9805 157.364 9.9805C158.268 9.9805 159.008 10.2542 159.583 10.8017C160.178 11.3289 160.476 11.998 160.476 12.809C160.476 13.5998 160.178 14.2689 159.583 14.8164C159.008 15.3435 158.268 15.6071 157.364 15.6071ZM159.983 17.3711V34.3423H154.715V17.3711H159.983Z" fill="white"/>
<path d="M144.528 34.5878C143.029 34.5878 141.693 34.3343 140.523 33.8274C139.352 33.3205 138.428 32.6311 137.75 31.7592C137.072 30.8671 136.692 29.8736 136.61 28.7786H141.817C141.878 29.3667 142.156 29.8431 142.649 30.2081C143.142 30.5731 143.748 30.7556 144.466 30.7556C145.124 30.7556 145.627 30.6339 145.976 30.3906C146.346 30.127 146.531 29.7925 146.531 29.3869C146.531 28.9003 146.274 28.5455 145.761 28.3224C145.247 28.0791 144.415 27.8155 143.265 27.5317C142.032 27.2478 141.005 26.9538 140.184 26.6496C139.362 26.3252 138.653 25.8285 138.058 25.1594C137.462 24.47 137.164 23.5474 137.164 22.3917C137.164 21.4184 137.431 20.5364 137.965 19.7456C138.52 18.9346 139.321 18.2959 140.369 17.8295C141.437 17.3632 142.7 17.13 144.158 17.13C146.315 17.13 148.01 17.6572 149.242 18.7115C150.495 19.7659 151.214 21.165 151.399 22.9087H146.531C146.449 22.3207 146.182 21.8543 145.73 21.5096C145.298 21.165 144.723 20.9926 144.004 20.9926C143.388 20.9926 142.916 21.1143 142.587 21.3576C142.258 21.5806 142.094 21.8949 142.094 22.3004C142.094 22.787 142.351 23.152 142.864 23.3953C143.398 23.6386 144.22 23.882 145.329 24.1253C146.603 24.4497 147.64 24.7741 148.441 25.0985C149.242 25.4027 149.941 25.9096 150.536 26.6192C151.152 27.3086 151.471 28.2413 151.491 29.4173C151.491 30.4109 151.204 31.303 150.629 32.0938C150.074 32.8643 149.263 33.4726 148.195 33.9186C147.147 34.3647 145.925 34.5878 144.528 34.5878Z" fill="white"/>
<path d="M117.832 25.8589C117.832 24.0949 118.192 22.5539 118.91 21.2359C119.65 19.918 120.667 18.9042 121.961 18.1945C123.275 17.4848 124.775 17.13 126.459 17.13C128.616 17.13 130.413 17.6876 131.851 18.8028C133.309 19.918 134.265 21.4894 134.716 23.517H129.109C128.636 22.2193 127.722 21.5705 126.367 21.5705C125.401 21.5705 124.631 21.9456 124.056 22.6958C123.481 23.4257 123.193 24.4801 123.193 25.8589C123.193 27.2377 123.481 28.3022 124.056 29.0524C124.631 29.7823 125.401 30.1473 126.367 30.1473C127.722 30.1473 128.636 29.4984 129.109 28.2008H134.716C134.265 30.1878 133.309 31.7491 131.851 32.8846C130.393 34.02 128.595 34.5878 126.459 34.5878C124.775 34.5878 123.275 34.2329 121.961 33.5233C120.667 32.8136 119.65 31.7998 118.91 30.4818C118.192 29.1639 117.832 27.6229 117.832 25.8589Z" fill="white"/>
<path d="M108.595 17.1882C110.608 17.1882 112.21 17.837 113.402 19.1347C114.614 20.4121 115.22 22.1761 115.22 24.4267V34.3418H109.982V25.1263C109.982 23.9908 109.684 23.1088 109.088 22.4802C108.493 21.8517 107.691 21.5374 106.685 21.5374C105.678 21.5374 104.877 21.8517 104.282 22.4802C103.686 23.1088 103.388 23.9908 103.388 25.1263V34.3418H98.1196V17.3707H103.388V19.6213C103.922 18.8711 104.641 18.2831 105.545 17.8573C106.449 17.4112 107.466 17.1882 108.595 17.1882Z" fill="white"/>
<path d="M96.2117 17.3731L85.4279 42.404H79.7587L83.7025 33.7663L76.7084 17.3731H82.5933L86.5679 27.9876L90.5117 17.3731H96.2117Z" fill="white"/>
<path d="M68.4641 34.5878C66.9646 34.5878 65.6295 34.3343 64.4587 33.8274C63.2879 33.3205 62.3636 32.6311 61.6857 31.7592C61.0079 30.8671 60.6279 29.8736 60.5457 28.7786H65.7527C65.8144 29.3667 66.0917 29.8431 66.5846 30.2081C67.0776 30.5731 67.6836 30.7556 68.4025 30.7556C69.0598 30.7556 69.563 30.6339 69.9122 30.3906C70.2819 30.127 70.4668 29.7925 70.4668 29.3869C70.4668 28.9003 70.21 28.5455 69.6965 28.3224C69.183 28.0791 68.3511 27.8155 67.2009 27.5317C65.9684 27.2478 64.9414 26.9538 64.1198 26.6496C63.2982 26.3252 62.5895 25.8285 61.9938 25.1594C61.3981 24.47 61.1003 23.5474 61.1003 22.3917C61.1003 21.4184 61.3673 20.5364 61.9014 19.7456C62.456 18.9346 63.2571 18.2959 64.3046 17.8295C65.3727 17.3632 66.636 17.13 68.0944 17.13C70.2511 17.13 71.9457 17.6572 73.1782 18.7115C74.4311 19.7659 75.1501 21.165 75.3349 22.9087H70.4668C70.3846 22.3207 70.1176 21.8543 69.6657 21.5096C69.2344 21.165 68.6592 20.9926 67.9403 20.9926C67.3241 20.9926 66.8517 21.1143 66.523 21.3576C66.1944 21.5806 66.03 21.8949 66.03 22.3004C66.03 22.787 66.2868 23.152 66.8003 23.3953C67.3344 23.6386 68.156 23.882 69.2652 24.1253C70.5387 24.4497 71.576 24.7741 72.3771 25.0985C73.1782 25.4027 73.8765 25.9096 74.4722 26.6192C75.0884 27.3086 75.4068 28.2413 75.4274 29.4173C75.4274 30.4109 75.1398 31.303 74.5646 32.0938C74.0101 32.8643 73.1987 33.4726 72.1306 33.9186C71.083 34.3647 69.8609 34.5878 68.4641 34.5878Z" fill="white"/>
<path d="M32.4342 36.4586L6.67324 42.6907C6.13469 42.781 5.68591 42.5098 5.68591 41.9678V10.7173C5.68591 10.2657 6.22445 9.9041 6.67324 9.99442L32.4342 15.8653C32.7932 15.8653 33.0625 16.2268 33.0625 16.5881V35.7358C33.0625 36.0971 32.7932 36.3683 32.4342 36.4586Z" fill="url(#paint0_linear_2021_17)"/>
<path d="M47.2435 39.0772L26.6886 33.8383C26.3295 33.8383 26.0602 33.4772 26.0602 33.1159V19.387C26.0602 19.0257 26.3295 18.7549 26.6886 18.6646L47.2435 13.697C47.7821 13.6066 48.2308 13.9678 48.2308 14.4194V38.3543C48.2308 38.8059 47.6923 39.1675 47.2435 39.0772Z" fill="url(#paint1_linear_2021_17)"/>
<defs>
<linearGradient id="paint0_linear_2021_17" x1="5.59615" y1="26.3425" x2="32.9728" y2="26.3425" gradientUnits="userSpaceOnUse">
<stop stop-color="#1367F4"/>
<stop offset="0.2" stop-color="#105CEE"/>
<stop offset="0.6" stop-color="#0940E0"/>
<stop offset="1" stop-color="#0323D1"/>
</linearGradient>
<linearGradient id="paint1_linear_2021_17" x1="26.0602" y1="26.3419" x2="48.2308" y2="26.3419" gradientUnits="userSpaceOnUse">
<stop stop-color="#0077FF"/>
<stop offset="0.2" stop-color="#209AFF"/>
<stop offset="0.6" stop-color="#46C5FF"/>
<stop offset="0.8" stop-color="#5EDFFF"/>
<stop offset="1" stop-color="#67E9FF"/>
</linearGradient>
</defs>
</svg>
